<?xml version="1.0"?>
<svg xmlns="http://www.w3.org/2000/svg" viewBox="0 0 512 512" width="512" height="512"><g id="Outline"><path d="M488,288h-6.112L277.824,185.968A23.859,23.859,0,0,0,280,176v-4.687a35.082,35.082,0,0,0-10.343-24.97,19.167,19.167,0,0,1-5.564-11.751A24.038,24.038,0,0,0,280,112V16H264V73.376a23.944,23.944,0,0,0-16,0V16H232v96a24.036,24.036,0,0,0,16.057,22.643,35.057,35.057,0,0,0,10.286,23.014A19.187,19.187,0,0,1,264,171.313V176a7.95,7.95,0,0,1-.515,2.8l-3.907-1.953a8,8,0,0,0-7.156,0l-3.907,1.953A7.95,7.95,0,0,1,248,176V160H232v16a23.859,23.859,0,0,0,2.176,9.968L30.112,288H24a8,8,0,0,0-8,8v56H32V336H48V320H32V304h72V480H32V464H48V448H32V368H16V488a8,8,0,0,0,8,8H488a8,8,0,0,0,8-8V448H480v32H208V304H480V432h16V296A8,8,0,0,0,488,288ZM256,120a8.009,8.009,0,0,1-8-8V96a8,8,0,0,1,16,0v16A8.009,8.009,0,0,1,256,120ZM192,320H176v16h16V448H176v16h16v16H120V304h72ZM65.888,288l180.254-90.127a23.908,23.908,0,0,0,19.716,0L446.112,288ZM416,464V320h16V464Zm-32,0V320h16V464Zm-32,0V320h16V464Zm-32,0V320h16V464Zm-32,0V320h16V464Zm-32,0V320h16V464Zm192,0V320h16V464ZM240,336H224V320h16Zm-16,16h16V464H224Z"/></g></svg>
