<svg height="486pt" viewBox="0 -58 486.48487 486" width="486pt" xmlns="http://www.w3.org/2000/svg"><path d="m478.480469 155.242188h-51.242188v-16.621094c0-4.421875-3.246093-8.378906-7.667969-8.378906h-42.332031v-56.621094c0-4.421875-3.246093-8.378906-7.667969-8.378906h-44.332031v-56.621094c0-4.421875-3.246093-8.378906-7.667969-8.378906h-106c-4.554687.148437-8.207031 3.820312-8.332031 8.378906v56.621094h-45.667969c-4.554687.148437-8.207031 3.820312-8.332031 8.378906v56.621094h-47.667969c-4.554687.148437-8.207031 3.820312-8.332031 8.378906v16.621094h-4v-60.621094c.03125-4.496094-3.511719-8.199219-8-8.378906h-2v-20c0-4.417969-3.582031-8-8-8h-29c-4.417969 0-8 3.582031-8 8v20h-1c-4.488281.179687-8.027343 3.882812-8 8.378906v60.621094h-17.242187c-2.609375.03125-5.042969 1.316406-6.535156 3.453124-1.4960942 2.136719-1.867188 4.863282-1 7.324219l37.308593 104.945313c-6.382812 2.0625-13.066406 3.042968-19.773437 2.894531-4.417969 0-8.003906 3.582031-8.003906 8 0 4.421875 3.585937 8.003906 8.003906 8.003906 20.394531 0 31.101562-5.828125 40.539062-10.972656 8.886719-4.84375 16.5625-9.023437 32.878906-9.023437 16.316407 0 23.992188 4.179687 32.882813 9.023437 9.441406 5.144531 20.144531 10.976563 40.535156 10.976563 20.394531 0 31.09375-5.832032 40.535157-10.976563 8.886718-4.84375 16.566406-9.023437 32.878906-9.023437 16.316406 0 23.992187 4.179687 32.878906 9.023437 9.441406 5.144531 20.144531 10.976563 40.535156 10.976563s31.089844-5.832032 40.53125-10.976563c8.886719-4.84375 16.5625-9.023437 32.878906-9.023437 16.3125 0 23.988282 4.179687 32.875 9.023437 9.441407 5.144531 20.144532 10.976563 40.535157 10.976563 4.417969 0 8-3.582032 8-8 0-4.421876-3.582031-8-8-8-6.492188.136718-12.960938-.765626-19.164063-2.679688l46.472656-104.566406c1.105469-2.488282.882813-5.367188-.589843-7.65625-1.472657-2.292969-3.996094-3.691406-6.71875-3.722656zm-67.242188 0h-23c-2.230469 0-4.359375.929687-5.875 2.566406l-34.621093 37.433594h-26.503907v-49h90zm-106-9v49h-90v-49zm56-16h-90v-49h90zm-142-114h90v49h-90zm-54 65h90v49h-90zm-56 65h90v49h-29.300781l-31.597656-37.179688c-1.523438-1.789062-3.753906-2.820312-6.101563-2.820312h-23zm-59-72h13v12h-13zm-9 28h32v53h-32zm383.578125 162.105468c-9.253906-5.035156-19.921875-10.515625-39.746094-10.515625-20.390624 0-31.09375 5.847657-40.535156 10.992188-8.886718 4.84375-16.5625 9.035156-32.875 9.035156s-23.992187-4.179687-32.878906-9.023437c-9.441406-5.144532-20.140625-10.972657-40.535156-10.972657-20.390625 0-31.089844 5.832031-40.535156 10.976563-8.886719 4.84375-16.5625 9.027344-32.878907 9.027344-16.316406 0-23.992187-4.183594-32.878906-9.027344-9.441406-5.144532-20.144531-10.972656-40.539063-10.972656-19.382812 0-30.007812 5.199218-39.121093 10.136718l-32.960938-92.761718h109.207031l31.601563 37.179687c1.519531 1.792969 3.75 2.820313 6.097656 2.820313h185c2.230469 0 4.359375-.929688 5.875-2.566407l34.625-37.433593h74.433594zm0 0"/><path d="m17.996094 329.867188c20.394531 0 31.101562-5.832032 40.539062-10.976563 8.886719-4.84375 16.5625-9.023437 32.878906-9.023437 16.316407 0 23.992188 4.179687 32.882813 9.023437 9.441406 5.144531 20.144531 10.976563 40.535156 10.976563 20.394531 0 31.09375-5.832032 40.535157-10.976563 8.886718-4.84375 16.566406-9.023437 32.878906-9.023437 16.316406 0 23.992187 4.179687 32.878906 9.023437 9.441406 5.144531 20.144531 10.976563 40.535156 10.976563s31.089844-5.832032 40.53125-10.976563c8.886719-4.84375 16.5625-9.023437 32.878906-9.023437 16.3125 0 23.988282 4.179687 32.875 9.023437 9.441407 5.144531 20.144532 10.976563 40.535157 10.976563 4.417969 0 8-3.582032 8-8 0-4.421876-3.582031-8-8-8-16.316407 0-23.992188-4.183594-32.878907-9.027344-9.441406-5.144532-20.140624-10.972656-40.53125-10.972656-20.390624 0-31.09375 5.828124-40.53125 10.976562-8.886718 4.839844-16.5625 9.023438-32.878906 9.023438-16.3125 0-23.988281-4.183594-32.878906-9.023438-9.4375-5.144531-20.140625-10.976562-40.53125-10.976562s-31.09375 5.832031-40.535156 10.976562c-8.890625 4.839844-16.5625 9.023438-32.878906 9.023438-16.316407 0-23.992188-4.183594-32.882813-9.023438-9.441406-5.144531-20.144531-10.976562-40.535156-10.976562-20.394531 0-31.097657 5.828124-40.539063 10.976562-8.890625 4.839844-16.566406 9.023438-32.882812 9.023438-4.417969 0-8 3.582031-8 8 0 4.417968 3.582031 8 8 8zm0 0"/><path d="m17.996094 369.867188c20.394531 0 31.101562-5.832032 40.539062-10.976563 8.886719-4.84375 16.5625-9.023437 32.878906-9.023437 16.316407 0 23.992188 4.179687 32.882813 9.023437 9.441406 5.144531 20.144531 10.976563 40.535156 10.976563 20.394531 0 31.09375-5.832032 40.535157-10.976563 8.886718-4.84375 16.566406-9.023437 32.878906-9.023437 16.316406 0 23.992187 4.179687 32.878906 9.023437 9.441406 5.144531 20.144531 10.976563 40.535156 10.976563s31.089844-5.832032 40.53125-10.976563c8.886719-4.84375 16.5625-9.023437 32.878906-9.023437 16.3125 0 23.988282 4.179687 32.875 9.023437 9.441407 5.144531 20.144532 10.976563 40.535157 10.976563 4.417969 0 8-3.582032 8-8 0-4.421876-3.582031-8-8-8-16.316407 0-23.992188-4.183594-32.878907-9.027344-9.441406-5.144532-20.140624-10.972656-40.53125-10.972656-20.390624 0-31.09375 5.828124-40.53125 10.976562-8.886718 4.839844-16.5625 9.023438-32.878906 9.023438-16.3125 0-23.988281-4.183594-32.878906-9.023438-9.4375-5.144531-20.140625-10.976562-40.53125-10.976562s-31.09375 5.832031-40.535156 10.976562c-8.890625 4.839844-16.5625 9.023438-32.878906 9.023438-16.316407 0-23.992188-4.183594-32.882813-9.023438-9.441406-5.144531-20.144531-10.976562-40.535156-10.976562-20.394531 0-31.097657 5.828124-40.539063 10.976562-8.890625 4.839844-16.566406 9.023438-32.882812 9.023438-4.417969 0-8 3.582031-8 8 0 4.417968 3.582031 8 8 8zm0 0"/></svg>